<svg width="77" height="44" viewBox="0 0 77 44" fill="none" xmlns="http://www.w3.org/2000/svg">
<path d="M9.232 37.376C6.928 37.216 5.056 36.912 3.616 36.464C2.208 35.984 1.152 35.552 0.448 35.168L2.08 30.608C3.104 31.12 4.336 31.584 5.776 32C7.248 32.416 8.912 32.624 10.768 32.624C12.976 32.624 14.496 32.304 15.328 31.664C16.192 30.992 16.624 30.112 16.624 29.024C16.624 28.288 16.448 27.648 16.096 27.104C15.744 26.56 15.248 26.08 14.608 25.664C13.968 25.248 13.2 24.864 12.304 24.512C11.44 24.16 10.48 23.792 9.424 23.408C8.432 23.056 7.44 22.656 6.448 22.208C5.488 21.76 4.608 21.216 3.808 20.576C3.04 19.904 2.416 19.104 1.936 18.176C1.456 17.248 1.216 16.112 1.216 14.768C1.216 12.56 1.872 10.688 3.184 9.152C4.496 7.584 6.512 6.576 9.232 6.128V0.751999H14.224V5.936C15.76 6.064 17.136 6.288 18.352 6.608C19.568 6.896 20.528 7.184 21.232 7.472L20.032 12.224C19.104 11.872 18 11.536 16.72 11.216C15.472 10.896 14.032 10.736 12.4 10.736C10.672 10.736 9.376 11.056 8.512 11.696C7.648 12.304 7.216 13.152 7.216 14.24C7.216 14.88 7.344 15.424 7.6 15.872C7.856 16.288 8.24 16.672 8.752 17.024C9.264 17.344 9.888 17.664 10.624 17.984C11.36 18.272 12.192 18.576 13.12 18.896C14.432 19.408 15.664 19.952 16.816 20.528C18 21.072 19.024 21.728 19.888 22.496C20.752 23.232 21.424 24.112 21.904 25.136C22.416 26.16 22.672 27.376 22.672 28.784C22.672 30.896 22.016 32.72 20.704 34.256C19.392 35.792 17.232 36.784 14.224 37.232V43.232H9.232V37.376ZM29.6013 11.648C31.4573 10.912 33.3133 9.968 35.1693 8.816C37.0573 7.664 38.7213 6.304 40.1613 4.736H44.2413V38H38.4333V12.512C37.5693 13.184 36.4813 13.84 35.1693 14.48C33.8573 15.12 32.5933 15.648 31.3773 16.064L29.6013 11.648ZM75.6505 13.376C75.6505 14.528 75.4105 15.664 74.9305 16.784C74.4505 17.872 73.8265 18.944 73.0585 20C72.3225 21.024 71.4745 22.032 70.5145 23.024C69.5545 23.984 68.5945 24.928 67.6345 25.856C67.1225 26.336 66.5465 26.912 65.9065 27.584C65.2665 28.256 64.6585 28.928 64.0825 29.6C63.5065 30.272 63.0105 30.928 62.5945 31.568C62.1785 32.176 61.9545 32.688 61.9225 33.104H76.7065V38H55.5385C55.5065 37.744 55.4905 37.44 55.4905 37.088C55.4905 36.704 55.4905 36.416 55.4905 36.224C55.4905 34.688 55.7305 33.28 56.2105 32C56.7225 30.688 57.3785 29.472 58.1785 28.352C58.9785 27.232 59.8745 26.176 60.8665 25.184C61.8585 24.192 62.8505 23.216 63.8425 22.256C64.6105 21.52 65.3465 20.8 66.0505 20.096C66.7545 19.392 67.3625 18.704 67.8745 18.032C68.4185 17.328 68.8505 16.624 69.1705 15.92C69.4905 15.184 69.6505 14.432 69.6505 13.664C69.6505 12 69.1705 10.816 68.2105 10.112C67.2505 9.408 66.0825 9.056 64.7065 9.056C63.8105 9.056 62.9785 9.184 62.2105 9.44C61.4425 9.696 60.7545 10 60.1465 10.352C59.5705 10.704 59.0585 11.072 58.6105 11.456C58.1625 11.808 57.8265 12.096 57.6025 12.32L54.7225 8.24C56.0665 6.96 57.6345 5.936 59.4265 5.168C61.2505 4.368 63.2025 3.968 65.2825 3.968C68.8345 3.968 71.4425 4.816 73.1065 6.512C74.8025 8.176 75.6505 10.464 75.6505 13.376Z" fill="black"/>
</svg>
