<svg width="79" height="44" viewBox="0 0 79 44" fill="none" xmlns="http://www.w3.org/2000/svg">
<path d="M9.232 37.376C6.928 37.216 5.056 36.912 3.616 36.464C2.208 35.984 1.152 35.552 0.448 35.168L2.08 30.608C3.104 31.12 4.336 31.584 5.776 32C7.248 32.416 8.912 32.624 10.768 32.624C12.976 32.624 14.496 32.304 15.328 31.664C16.192 30.992 16.624 30.112 16.624 29.024C16.624 28.288 16.448 27.648 16.096 27.104C15.744 26.56 15.248 26.08 14.608 25.664C13.968 25.248 13.2 24.864 12.304 24.512C11.44 24.16 10.48 23.792 9.424 23.408C8.432 23.056 7.44 22.656 6.448 22.208C5.488 21.76 4.608 21.216 3.808 20.576C3.04 19.904 2.416 19.104 1.936 18.176C1.456 17.248 1.216 16.112 1.216 14.768C1.216 12.56 1.872 10.688 3.184 9.152C4.496 7.584 6.512 6.576 9.232 6.128V0.751999H14.224V5.936C15.76 6.064 17.136 6.288 18.352 6.608C19.568 6.896 20.528 7.184 21.232 7.472L20.032 12.224C19.104 11.872 18 11.536 16.72 11.216C15.472 10.896 14.032 10.736 12.4 10.736C10.672 10.736 9.376 11.056 8.512 11.696C7.648 12.304 7.216 13.152 7.216 14.24C7.216 14.88 7.344 15.424 7.6 15.872C7.856 16.288 8.24 16.672 8.752 17.024C9.264 17.344 9.888 17.664 10.624 17.984C11.36 18.272 12.192 18.576 13.12 18.896C14.432 19.408 15.664 19.952 16.816 20.528C18 21.072 19.024 21.728 19.888 22.496C20.752 23.232 21.424 24.112 21.904 25.136C22.416 26.16 22.672 27.376 22.672 28.784C22.672 30.896 22.016 32.72 20.704 34.256C19.392 35.792 17.232 36.784 14.224 37.232V43.232H9.232V37.376ZM48.3693 13.376C48.3693 14.528 48.1293 15.664 47.6493 16.784C47.1693 17.872 46.5453 18.944 45.7773 20C45.0413 21.024 44.1933 22.032 43.2333 23.024C42.2733 23.984 41.3133 24.928 40.3533 25.856C39.8413 26.336 39.2653 26.912 38.6253 27.584C37.9853 28.256 37.3773 28.928 36.8013 29.6C36.2253 30.272 35.7293 30.928 35.3133 31.568C34.8973 32.176 34.6733 32.688 34.6413 33.104H49.4253V38H28.2573C28.2253 37.744 28.2093 37.44 28.2093 37.088C28.2093 36.704 28.2093 36.416 28.2093 36.224C28.2093 34.688 28.4493 33.28 28.9293 32C29.4413 30.688 30.0973 29.472 30.8973 28.352C31.6973 27.232 32.5933 26.176 33.5853 25.184C34.5773 24.192 35.5693 23.216 36.5613 22.256C37.3293 21.52 38.0653 20.8 38.7693 20.096C39.4733 19.392 40.0813 18.704 40.5933 18.032C41.1373 17.328 41.5693 16.624 41.8893 15.92C42.2093 15.184 42.3693 14.432 42.3693 13.664C42.3693 12 41.8893 10.816 40.9293 10.112C39.9693 9.408 38.8013 9.056 37.4253 9.056C36.5293 9.056 35.6973 9.184 34.9293 9.44C34.1613 9.696 33.4733 10 32.8653 10.352C32.2893 10.704 31.7773 11.072 31.3293 11.456C30.8813 11.808 30.5453 12.096 30.3213 12.32L27.4413 8.24C28.7853 6.96 30.3533 5.936 32.1453 5.168C33.9693 4.368 35.9213 3.968 38.0013 3.968C41.5533 3.968 44.1613 4.816 45.8253 6.512C47.5213 8.176 48.3693 10.464 48.3693 13.376ZM68.7385 11.888C67.9705 12.816 67.1705 13.808 66.3385 14.864C65.5385 15.92 64.7545 17.024 63.9865 18.176C63.2185 19.328 62.4825 20.512 61.7785 21.728C61.0745 22.912 60.4345 24.096 59.8585 25.28H68.7385V11.888ZM74.4025 4.736V25.28H78.1465V30.032H74.4025V38H68.7385V30.032H54.1465V25.904C54.7865 24.496 55.6345 22.88 56.6905 21.056C57.7785 19.232 58.9785 17.36 60.2905 15.44C61.6025 13.52 62.9945 11.632 64.4665 9.776C65.9385 7.92 67.4105 6.24 68.8825 4.736H74.4025Z" fill="black"/>
</svg>
