<svg width="77" height="44" viewBox="0 0 77 44" fill="none" xmlns="http://www.w3.org/2000/svg">
<path d="M9.232 37.376C6.928 37.216 5.056 36.912 3.616 36.464C2.208 35.984 1.152 35.552 0.448 35.168L2.08 30.608C3.104 31.12 4.336 31.584 5.776 32C7.248 32.416 8.912 32.624 10.768 32.624C12.976 32.624 14.496 32.304 15.328 31.664C16.192 30.992 16.624 30.112 16.624 29.024C16.624 28.288 16.448 27.648 16.096 27.104C15.744 26.56 15.248 26.08 14.608 25.664C13.968 25.248 13.2 24.864 12.304 24.512C11.44 24.16 10.48 23.792 9.424 23.408C8.432 23.056 7.44 22.656 6.448 22.208C5.488 21.76 4.608 21.216 3.808 20.576C3.04 19.904 2.416 19.104 1.936 18.176C1.456 17.248 1.216 16.112 1.216 14.768C1.216 12.56 1.872 10.688 3.184 9.152C4.496 7.584 6.512 6.576 9.232 6.128V0.751999H14.224V5.936C15.76 6.064 17.136 6.288 18.352 6.608C19.568 6.896 20.528 7.184 21.232 7.472L20.032 12.224C19.104 11.872 18 11.536 16.72 11.216C15.472 10.896 14.032 10.736 12.4 10.736C10.672 10.736 9.376 11.056 8.512 11.696C7.648 12.304 7.216 13.152 7.216 14.24C7.216 14.88 7.344 15.424 7.6 15.872C7.856 16.288 8.24 16.672 8.752 17.024C9.264 17.344 9.888 17.664 10.624 17.984C11.36 18.272 12.192 18.576 13.12 18.896C14.432 19.408 15.664 19.952 16.816 20.528C18 21.072 19.024 21.728 19.888 22.496C20.752 23.232 21.424 24.112 21.904 25.136C22.416 26.16 22.672 27.376 22.672 28.784C22.672 30.896 22.016 32.72 20.704 34.256C19.392 35.792 17.232 36.784 14.224 37.232V43.232H9.232V37.376ZM36.6093 38.72C35.7453 38.72 34.8493 38.656 33.9213 38.528C33.0253 38.432 32.1613 38.288 31.3293 38.096C30.5293 37.936 29.7933 37.76 29.1213 37.568C28.4493 37.344 27.9373 37.136 27.5853 36.944L28.7373 32C29.4093 32.32 30.3853 32.688 31.6653 33.104C32.9453 33.488 34.5293 33.68 36.4173 33.68C38.9453 33.68 40.7693 33.2 41.8893 32.24C43.0093 31.248 43.5693 29.936 43.5693 28.304C43.5693 27.248 43.3453 26.368 42.8973 25.664C42.4813 24.96 41.8893 24.4 41.1213 23.984C40.3853 23.536 39.5213 23.232 38.5293 23.072C37.5693 22.88 36.5453 22.784 35.4573 22.784H33.4893V18.08H35.8893C36.6253 18.08 37.3613 18.016 38.0973 17.888C38.8653 17.728 39.5533 17.472 40.1613 17.12C40.7693 16.736 41.2653 16.24 41.6493 15.632C42.0333 15.024 42.2253 14.24 42.2253 13.28C42.2253 12.512 42.0813 11.856 41.7933 11.312C41.5053 10.768 41.1213 10.32 40.6413 9.968C40.1933 9.616 39.6653 9.36 39.0573 9.2C38.4493 9.04 37.8093 8.96 37.1373 8.96C35.6973 8.96 34.4173 9.184 33.2973 9.632C32.1773 10.048 31.1853 10.528 30.3213 11.072L28.2093 6.752C28.6573 6.464 29.2013 6.16 29.8413 5.84C30.4813 5.52 31.1853 5.216 31.9533 4.928C32.7533 4.64 33.6013 4.416 34.4973 4.256C35.3933 4.064 36.3373 3.968 37.3293 3.968C39.1853 3.968 40.7853 4.192 42.1293 4.64C43.4733 5.088 44.5773 5.728 45.4413 6.56C46.3373 7.36 46.9933 8.32 47.4093 9.44C47.8573 10.528 48.0813 11.728 48.0813 13.04C48.0813 14.576 47.6493 15.952 46.7853 17.168C45.9533 18.384 44.8653 19.312 43.5213 19.952C45.2493 20.56 46.6733 21.568 47.7933 22.976C48.9453 24.384 49.5212 26.192 49.5212 28.4C49.5212 29.872 49.2653 31.248 48.7533 32.528C48.2413 33.776 47.4573 34.864 46.4013 35.792C45.3453 36.688 44.0013 37.408 42.3693 37.952C40.7693 38.464 38.8493 38.72 36.6093 38.72ZM75.6505 13.376C75.6505 14.528 75.4105 15.664 74.9305 16.784C74.4505 17.872 73.8265 18.944 73.0585 20C72.3225 21.024 71.4745 22.032 70.5145 23.024C69.5545 23.984 68.5945 24.928 67.6345 25.856C67.1225 26.336 66.5465 26.912 65.9065 27.584C65.2665 28.256 64.6585 28.928 64.0825 29.6C63.5065 30.272 63.0105 30.928 62.5945 31.568C62.1785 32.176 61.9545 32.688 61.9225 33.104H76.7065V38H55.5385C55.5065 37.744 55.4905 37.44 55.4905 37.088C55.4905 36.704 55.4905 36.416 55.4905 36.224C55.4905 34.688 55.7305 33.28 56.2105 32C56.7225 30.688 57.3785 29.472 58.1785 28.352C58.9785 27.232 59.8745 26.176 60.8665 25.184C61.8585 24.192 62.8505 23.216 63.8425 22.256C64.6105 21.52 65.3465 20.8 66.0505 20.096C66.7545 19.392 67.3625 18.704 67.8745 18.032C68.4185 17.328 68.8505 16.624 69.1705 15.92C69.4905 15.184 69.6505 14.432 69.6505 13.664C69.6505 12 69.1705 10.816 68.2105 10.112C67.2505 9.408 66.0825 9.056 64.7065 9.056C63.8105 9.056 62.9785 9.184 62.2105 9.44C61.4425 9.696 60.7545 10 60.1465 10.352C59.5705 10.704 59.0585 11.072 58.6105 11.456C58.1625 11.808 57.8265 12.096 57.6025 12.32L54.7225 8.24C56.0665 6.96 57.6345 5.936 59.4265 5.168C61.2505 4.368 63.2025 3.968 65.2825 3.968C68.8345 3.968 71.4425 4.816 73.1065 6.512C74.8025 8.176 75.6505 10.464 75.6505 13.376Z" fill="black"/>
</svg>
