<svg width="32" height="32" viewBox="0 0 32 32" fill="none" xmlns="http://www.w3.org/2000/svg">
<path d="M26 16C26 17.104 25.104 18 24 18H8C6.896 18 6 17.104 6 16C6 14.896 6.896 14 8 14H24C25.104 14 26 14.896 26 16Z" fill="white"/>
<path d="M26 8C26 9.104 25.104 10 24 10H8C6.896 10 6 9.104 6 8C6 6.896 6.896 6 8 6H24C25.104 6 26 6.896 26 8Z" fill="white"/>
<path d="M26 24C26 25.104 25.104 26 24 26H8C6.896 26 6 25.104 6 24C6 22.896 6.896 22 8 22H24C25.104 22 26 22.896 26 24Z" fill="white"/>
</svg>
