<svg width="80" height="80" viewBox="0 0 80 80" fill="none" xmlns="http://www.w3.org/2000/svg">
<circle cx="40" cy="40" r="40" fill="#FC3867"/>
<path d="M60 44.4847V22.2397C60 21.5926 59.4753 21.0679 58.8281 21.0679H21.1719C20.5247 21.0679 20 21.5926 20 22.2397V44.4847H60ZM39.6094 39.9615C39.6094 40.6087 39.0847 41.1334 38.4375 41.1334H30.3912C29.7441 41.1334 29.2194 40.6087 29.2194 39.9615V34.3077C29.2194 33.6605 29.7441 33.1358 30.3912 33.1358H38.4375C39.0847 33.1358 39.6094 33.6605 39.6094 34.3077V39.9615ZM50.7508 41.1334H43.125C42.4778 41.1334 41.9531 40.6087 41.9531 39.9615C41.9531 39.3144 42.4778 38.7897 43.125 38.7897H50.7508C51.398 38.7897 51.9227 39.3144 51.9227 39.9615C51.9227 40.6087 51.398 41.1334 50.7508 41.1334ZM50.7508 35.4796H43.125C42.4778 35.4796 41.9531 34.9549 41.9531 34.3077C41.9531 33.6605 42.4778 33.1358 43.125 33.1358H50.7508C51.398 33.1358 51.9227 33.6605 51.9227 34.3077C51.9227 34.9549 51.398 35.4796 50.7508 35.4796ZM50.7508 29.1066H30.3912C29.7441 29.1066 29.2194 28.5819 29.2194 27.9347C29.2194 27.2876 29.7441 26.7629 30.3912 26.7629H50.7508C51.398 26.7629 51.9227 27.2876 51.9227 27.9347C51.9227 28.5819 51.398 29.1066 50.7508 29.1066Z" fill="white"/>
<path d="M35.4382 54.5325V56.5886H35.1006C34.4534 56.5886 33.9287 57.1133 33.9287 57.7604C33.9287 58.4076 34.4534 58.9323 35.1006 58.9323H44.8992C45.5464 58.9323 46.0711 58.4076 46.0711 57.7604C46.0711 57.1133 45.5464 56.5886 44.8992 56.5886H44.5616V54.5325H35.4382Z" fill="white"/>
<path d="M58.8281 52.1456C59.4753 52.1456 60 51.6209 60 50.9737V46.8283H20V50.9737C20 51.6209 20.5247 52.1456 21.1719 52.1456H58.8281Z" fill="white"/>
<path d="M31.563 35.4796H37.2655V38.7897H31.563V35.4796Z" fill="white"/>
</svg>
