<svg width="32" height="34" viewBox="0 0 32 34" fill="none" xmlns="http://www.w3.org/2000/svg">
<path fill-rule="evenodd" clip-rule="evenodd" d="M0 16.8393C0 7.60824 7.16344 0.125 16 0.125C24.8366 0.125 32 7.60824 32 16.8393C32 26.0703 24.8366 33.5536 16 33.5536C7.16344 33.5536 0 26.0703 0 16.8393Z" fill="#C4C4C4"/>
<path fill-rule="evenodd" clip-rule="evenodd" d="M16 0.125C7.16344 0.125 0 7.60824 0 16.8393C0 26.0703 7.16344 33.5536 16 33.5536C24.8366 33.5536 32 26.0703 32 16.8393C32 7.60824 24.8366 0.125 16 0.125ZM17.6676 17.5735V26.667H14.066V17.5739H12.2666V14.4402H14.066V12.5588C14.066 10.0023 15.082 8.48218 17.9687 8.48218H20.372V11.6162H18.8698C17.7461 11.6162 17.6717 12.0541 17.6717 12.8714L17.6676 14.4398H20.389L20.0706 17.5735H17.6676Z" fill="white"/>
</svg>
