<svg width="32" height="34" viewBox="0 0 32 34" fill="none" xmlns="http://www.w3.org/2000/svg">
<path fill-rule="evenodd" clip-rule="evenodd" d="M0 16.8393C0 7.60824 7.16344 0.125 16 0.125C24.8366 0.125 32 7.60824 32 16.8393C32 26.0703 24.8366 33.5536 16 33.5536C7.16344 33.5536 0 26.0703 0 16.8393Z" fill="#C4C4C4"/>
<path fill-rule="evenodd" clip-rule="evenodd" d="M16 0.125C7.16344 0.125 0 7.60824 0 16.8393C0 26.0703 7.16344 33.5536 16 33.5536C24.8366 33.5536 32 26.0703 32 16.8393C32 7.60824 24.8366 0.125 16 0.125ZM12.8156 7.97891C13.7258 7.93563 14.0167 7.92505 16.3342 7.92505H16.3315C18.6498 7.92505 18.9396 7.93563 19.8498 7.97891C20.7582 8.02236 21.3787 8.17261 21.9227 8.39305C22.4845 8.62056 22.9592 8.92513 23.4338 9.42099C23.9085 9.91648 24.2001 10.4138 24.4187 11.0001C24.6285 11.5669 24.7725 12.2147 24.8152 13.1637C24.8561 14.1146 24.8667 14.4184 24.8667 16.8394C24.8667 19.2604 24.8561 19.5635 24.8152 20.5144C24.7725 21.463 24.6285 22.111 24.4187 22.678C24.2001 23.2641 23.9085 23.7614 23.4338 24.2569C22.9597 24.7528 22.4843 25.0581 21.9232 25.2858C21.3803 25.5062 20.7595 25.6565 19.851 25.6999C18.9408 25.7432 18.6508 25.7538 16.3331 25.7538C14.0158 25.7538 13.7251 25.7432 12.8149 25.6999C11.9066 25.6565 11.2863 25.5062 10.7434 25.2858C10.1825 25.0581 9.70639 24.7528 9.23225 24.2569C8.75776 23.7614 8.4662 23.2641 8.24807 22.6778C8.03722 22.111 7.8934 21.4632 7.85162 20.5142C7.81037 19.5633 7.80006 19.2604 7.80006 16.8394C7.80006 14.4184 7.81073 14.1144 7.85144 13.1635C7.89233 12.2149 8.03633 11.5669 8.24789 11C8.46656 10.4138 8.75812 9.91648 9.23279 9.42099C9.7071 8.92532 10.1832 8.62074 10.7444 8.39305C11.287 8.17261 11.9071 8.02236 12.8156 7.97891Z" fill="white"/>
<path fill-rule="evenodd" clip-rule="evenodd" d="M15.5687 9.53104C15.7174 9.53079 15.8773 9.53087 16.0498 9.53095L16.3343 9.53104C18.6127 9.53104 18.8827 9.53958 19.7825 9.58229C20.6145 9.62204 21.066 9.76727 21.3668 9.88928C21.7651 10.0509 22.049 10.244 22.3475 10.556C22.6461 10.868 22.831 11.1652 22.9861 11.5812C23.1029 11.895 23.2421 12.3667 23.2799 13.2359C23.3208 14.1756 23.3297 14.4579 23.3297 16.8369C23.3297 19.216 23.3208 19.4982 23.2799 20.438C23.2419 21.3071 23.1029 21.7788 22.9861 22.0927C22.8314 22.5087 22.6461 22.8049 22.3475 23.1167C22.0488 23.4287 21.7652 23.6219 21.3668 23.7835C21.0664 23.906 20.6145 24.0509 19.7825 24.0906C18.8829 24.1333 18.6127 24.1426 16.3343 24.1426C14.0556 24.1426 13.7856 24.1333 12.886 24.0906C12.054 24.0505 11.6025 23.9053 11.3015 23.7833C10.9033 23.6217 10.6188 23.4286 10.3201 23.1165C10.0215 22.8045 9.83658 22.5081 9.68156 22.092C9.56476 21.7781 9.42556 21.3064 9.38769 20.4372C9.3468 19.4975 9.33862 19.2152 9.33862 16.8347C9.33862 14.4542 9.3468 14.1734 9.38769 13.2337C9.42574 12.3645 9.56476 11.8928 9.68156 11.5786C9.83623 11.1626 10.0215 10.8654 10.3201 10.5534C10.6188 10.2414 10.9033 10.0483 11.3015 9.88631C11.6023 9.76374 12.054 9.61888 12.886 9.57895C13.6732 9.54181 13.9783 9.53067 15.5687 9.52881V9.53104ZM20.8892 11.0106C20.3238 11.0106 19.8651 11.4892 19.8651 12.08C19.8651 12.6706 20.3238 13.1497 20.8892 13.1497C21.4545 13.1497 21.9132 12.6706 21.9132 12.08C21.9132 11.4894 21.4545 11.0103 20.8892 11.0103V11.0106ZM11.9521 16.8379C11.9521 14.3098 13.9141 12.2601 16.3341 12.26C18.7543 12.26 20.7159 14.3098 20.7159 16.8379C20.7159 19.3661 18.7544 21.4149 16.3343 21.4149C13.9142 21.4149 11.9521 19.3661 11.9521 16.8379Z" fill="white"/>
<path fill-rule="evenodd" clip-rule="evenodd" d="M16.334 13.8677C17.9048 13.8677 19.1785 15.198 19.1785 16.8391C19.1785 18.4801 17.9048 19.8106 16.334 19.8106C14.7629 19.8106 13.4895 18.4801 13.4895 16.8391C13.4895 15.198 14.7629 13.8677 16.334 13.8677V13.8677Z" fill="white"/>
</svg>
