<svg width="80" height="80" viewBox="0 0 80 80" fill="none" xmlns="http://www.w3.org/2000/svg">
<circle cx="40" cy="40" r="40" fill="#FC3867"/>
<path d="M43.9763 22.5791L40.6255 25.9139L56.6491 41.9377L60 38.6028L43.9763 22.5791Z" fill="white"/>
<path d="M40.4793 29.0831L29.6705 36.8037L25.5707 54.9599C25.3311 55.0357 25.0789 55.0756 24.8203 55.0756C24.1589 55.0756 23.5372 54.818 23.0694 54.3503C22.6017 53.8827 22.3441 53.2609 22.3441 52.5995C22.3441 51.9381 22.6017 51.3163 23.0695 50.8485L24.8654 49.0523C26.7448 47.1729 26.7448 44.1148 24.8654 42.2353H24.8651C22.1078 39.4781 22.1078 34.9916 24.8651 32.2344L23.2075 30.5768C19.5362 34.2481 19.5362 40.2217 23.2075 43.8931H23.2078C24.1732 44.8585 24.1732 46.4294 23.2077 47.3949L21.4119 49.1909C20.5014 50.1014 20 51.3119 20 52.5995C20 53.887 20.5014 55.0975 21.4119 56.008C22.3223 56.9184 23.5328 57.4199 24.8204 57.4199C25.7076 57.4199 26.8397 57.4631 27.5808 57.0172L45.7755 52.9087L53.4961 42.0999L40.4793 29.0831ZM42.5951 43.2993C41.9816 43.9127 41.1129 44.1145 40.3309 43.9059L28.2288 56.0079L26.5712 54.3504L38.6733 42.2483C38.4645 41.4663 38.6663 40.5976 39.2798 39.9841C40.1952 39.0688 41.6795 39.0688 42.5951 39.9841C43.5105 40.8996 43.5105 42.3839 42.5951 43.2993Z" fill="white"/>
</svg>
