<svg width="80" height="80" viewBox="0 0 80 80" fill="none" xmlns="http://www.w3.org/2000/svg">
<circle cx="40" cy="40" r="40" fill="#FC3867"/>
<g clip-path="url(#clip0_1_387)">
<path d="M37.594 35.3871C37.7166 34.9211 38.0204 34.5233 38.4382 34.2827L44.1729 30.9698C44.5901 30.7297 45.086 30.6654 45.5509 30.7914C46.0169 30.9155 46.4128 31.2223 46.6498 31.6423L48.4283 34.7298C49.791 34.5291 51.176 34.5291 52.5388 34.7298L54.32 31.6383C54.5566 31.2202 54.9516 30.9149 55.4158 30.7914C55.8791 30.6657 56.3732 30.7288 56.7899 30.967L56.8445 30.9984C56.3873 29.0949 55.4131 27.3552 54.0299 25.9702C53.8744 25.8147 53.7081 25.6765 53.5459 25.5325L49.1212 30.0185C48.4127 30.7264 47.2665 30.7313 46.5522 30.0295L44.0152 27.5236C43.3869 27.7996 42.7397 28.0302 42.0787 28.2135C41.4151 28.3968 40.7392 28.5319 40.0563 28.6179L39.1596 32.0669C38.9555 32.8666 38.236 33.4269 37.4107 33.4287C37.2576 33.4287 37.1051 33.4092 36.9568 33.3714L35.7795 33.0307C35.6319 35.9785 36.7122 38.8556 38.7634 40.9781C39.0092 40.5895 39.2749 40.2138 39.5588 39.8523L37.7791 36.7627C37.536 36.3473 37.4696 35.8519 37.594 35.3871Z" fill="white"/>
<path d="M46.4355 20.023C39.3753 20.0187 33.4943 25.4343 32.9175 32.4707C32.3405 39.5074 37.261 45.8084 44.2279 46.954C44.2364 46.9527 44.2434 46.9476 44.252 46.9466C44.37 46.9387 44.4884 46.9607 44.5957 47.0104C47.7259 47.4703 50.9172 46.7887 53.5865 45.0901C53.6012 45.0773 53.6213 45.0709 53.6372 45.0593C58.7618 41.8519 61.142 35.6375 59.4706 29.8272C57.7995 24.0173 52.4812 20.0172 46.4355 20.023ZM55.039 42.1234C50.4819 46.6785 43.1576 46.8728 38.3658 42.565C38.3612 42.5598 38.3542 42.5565 38.3499 42.551C38.1919 42.4085 38.0284 42.2752 37.8765 42.1234C35.2108 39.4528 33.9417 35.6924 34.4447 31.9528C34.4483 31.936 34.4441 31.9198 34.4489 31.9034L34.4529 31.8951C35.029 27.6025 37.8549 23.9453 41.8632 22.3047C45.8715 20.6641 50.4508 21.2905 53.8711 23.9474C53.9074 23.9691 53.9416 23.9944 53.9733 24.0224C56.7082 26.1584 58.3925 29.3676 58.5965 32.8321C58.8005 36.2963 57.5046 39.6812 55.039 42.1234Z" fill="white"/>
<path d="M45.293 44.1767C48.0328 44.4768 50.7824 43.7082 52.9689 42.0307C50.234 40.7241 46.954 41.6412 45.293 44.1767Z" fill="white"/>
<path d="M37.6026 31.9468C37.6895 31.8952 37.7521 31.8108 37.7762 31.7125L38.7982 27.7817C38.8742 27.4901 39.1249 27.2772 39.425 27.2501C40.1933 27.1811 40.954 27.043 41.6979 26.8374C42.4399 26.6312 43.1625 26.3598 43.8567 26.0258C44.1287 25.8956 44.453 25.9499 44.6677 26.1612L47.5588 29.0169C47.6326 29.0901 47.7329 29.1307 47.8369 29.1292C47.9409 29.1277 48.0401 29.0844 48.1117 29.0087L52.4147 24.6472C49.4233 22.6388 45.6217 22.2721 42.3015 23.6712C38.9812 25.0702 36.5888 28.047 35.937 31.5905L37.3321 31.9944C37.4251 32.0133 37.5218 31.9965 37.6026 31.9468Z" fill="white"/>
<path d="M49.2911 51.4335C51.6558 51.4307 53.5718 49.5147 53.5745 47.1501C53.5745 47.0268 53.5565 46.9036 53.5459 46.7804C51.3627 47.9626 48.9187 48.5805 46.4357 48.5778C46.0328 48.5778 45.6369 48.5488 45.2422 48.5174C45.8199 50.2623 47.4531 51.4384 49.2911 51.4335Z" fill="white"/>
<path d="M57.1263 32.8075L56.0813 32.207C55.9923 32.1561 55.8867 32.1426 55.7879 32.1698C55.6909 32.1954 55.6086 32.2595 55.5595 32.347L53.5294 35.8704C53.3784 36.1314 53.0801 36.2699 52.7833 36.2165C51.2629 35.9384 49.7044 35.9384 48.1836 36.2165C47.8872 36.2687 47.5895 36.1305 47.4376 35.8704L45.4102 32.351C45.3608 32.2619 45.2773 32.1963 45.1787 32.1698C45.0787 32.1426 44.972 32.1567 44.8826 32.2088L39.1541 35.5181C39.065 35.5696 39.0003 35.6544 38.9741 35.7539C38.9479 35.8533 38.9625 35.9591 39.0147 36.0476L41.0435 39.5694C41.1954 39.8323 41.164 40.1623 40.9655 40.3917C40.551 40.8825 40.1764 41.4055 39.8455 41.9558C41.0106 42.8717 42.3547 43.5335 43.7913 43.8986C44.7618 42.1305 46.4045 40.8285 48.3471 40.2868C50.29 39.7451 52.3692 40.0095 54.1147 41.02C56.2454 38.8383 57.3416 35.8496 57.1263 32.8075Z" fill="white"/>
<path d="M27.7809 48.181L22.228 53.7335L26.2666 57.7718L31.8194 52.2192C32.0976 51.9398 32.0976 51.4884 31.8194 51.2094L28.7901 48.1807C28.5077 47.9114 28.0633 47.9114 27.7809 48.181Z" fill="white"/>
<path d="M35.8633 47.1807C36.1424 47.454 36.5895 47.451 36.8646 47.1737L38.0368 45.997C36.4486 44.9188 35.0804 43.5482 34.0053 41.9579L32.8273 43.1358C32.5504 43.4134 32.5504 43.8623 32.8273 44.1399L33.3776 44.6916L35.8572 47.171L35.8633 47.1807Z" fill="white"/>
<path d="M56.6906 49.7719C56.7904 49.4846 57.0609 49.2919 57.365 49.2919H59.9993V45.0087H57.365C57.0655 45.009 56.7977 44.8218 56.6952 44.5406C56.6906 44.5281 56.6845 44.514 56.6803 44.5015C56.1139 45.0389 55.5069 45.5315 54.8643 45.975C55.2873 47.9706 54.612 50.04 53.0934 51.4019C51.5748 52.764 49.4444 53.2108 47.5064 52.5743C45.5685 51.9375 44.1185 50.3136 43.7037 48.3165C42.1595 48.0344 40.6698 47.5098 39.2897 46.7622L38.583 47.4713V49.2919H41.2173C41.5211 49.2919 41.7919 49.4846 41.8914 49.7719C42.2083 50.6818 42.6938 51.5239 43.3224 52.254C43.5195 52.484 43.5496 52.8128 43.3987 53.0751L42.085 55.3523L45.7932 57.497L47.102 55.2171C47.2524 54.9545 47.5522 54.8161 47.8496 54.8716C48.8027 55.0451 49.7796 55.0451 50.7327 54.8716C51.0301 54.8167 51.3293 54.9551 51.4803 55.2171L52.7936 57.4943L56.5012 55.3553L55.1836 53.0748C55.0323 52.8128 55.0628 52.4837 55.2599 52.254C55.8882 51.5239 56.3737 50.6818 56.6906 49.7719Z" fill="white"/>
<path d="M34.3405 47.6785L32.3681 45.7012L32.3239 45.6569L30.3041 47.6757L31.3143 48.6859L32.3239 49.6952L34.3405 47.6785Z" fill="white"/>
<path d="M23.3311 33.3529C23.6483 34.2627 24.1339 35.1048 24.7625 35.835C24.9595 36.0646 24.99 36.3937 24.8387 36.6557L23.5251 38.9332L27.2327 41.0779L28.5418 38.7981C28.6918 38.5355 28.9916 38.3967 29.289 38.4525C30.2421 38.626 31.2191 38.626 32.1722 38.4525C32.2048 38.4491 32.2375 38.4479 32.2698 38.4494C32.0328 37.765 31.8461 37.0644 31.7113 36.3532C29.5855 36.725 27.4312 35.8661 26.1444 34.1337C24.8576 32.401 24.6576 30.0909 25.6278 28.163C26.598 26.2351 28.5723 25.019 30.7308 25.0202C31.754 25.0178 32.7587 25.2953 33.6362 25.8224C34.5231 24.3578 35.6529 23.0548 36.9772 21.9693L34.2285 20.3845L32.9197 22.6644C32.7691 22.9264 32.4696 23.0649 32.1722 23.0097C31.2191 22.8361 30.2421 22.8361 29.289 23.0097C28.9916 23.0661 28.6915 22.9273 28.5418 22.6644L27.2281 20.387L23.5205 22.5259L24.8384 24.8064C24.9897 25.0684 24.9592 25.3975 24.7625 25.6275C24.1336 26.3577 23.6483 27.1998 23.3311 28.1096C23.2314 28.3969 22.9608 28.5894 22.6568 28.5894H20.0225V32.8728H22.6568C22.9608 32.8728 23.2314 33.0656 23.3311 33.3529Z" fill="white"/>
<path d="M23.2376 59.7909C23.5167 60.0694 23.9687 60.0694 24.2478 59.7909L25.257 58.7813L21.2188 54.7431L20.2092 55.7524C20.0753 55.8863 20 56.0677 20 56.2568C20 56.4463 20.0753 56.6277 20.2092 56.7616L23.2376 59.7909Z" fill="white"/>
<path d="M30.7307 26.4479C29.0987 26.4357 27.6017 27.3522 26.8703 28.811C26.139 30.2698 26.3 32.0175 27.2858 33.3183C28.2715 34.6189 29.9106 35.2462 31.5128 34.9361C31.4731 34.4908 31.4444 34.0421 31.4444 33.5864C31.4469 31.3331 31.9614 29.1093 32.949 27.0838C32.2835 26.6687 31.5149 26.4485 30.7307 26.4479Z" fill="white"/>
</g>
<defs>
<clipPath id="clip0_1_387">
<rect width="40" height="40" fill="white" transform="translate(20 20)"/>
</clipPath>
</defs>
</svg>
