<svg width="80" height="80" viewBox="0 0 80 80" fill="none" xmlns="http://www.w3.org/2000/svg">
<circle cx="40" cy="40" r="40" fill="#FC3867"/>
<path d="M35.5285 50.7692C32.9131 50.7692 30.9131 52.7692 30.9131 55.3846C30.9131 58 32.9131 60 35.5285 60C38.1439 60 40.1438 58 40.1438 55.3846C40.1438 52.7692 38.1439 50.7692 35.5285 50.7692ZM35.5285 57.5385C34.2977 57.5385 33.3746 56.6154 33.3746 55.3846C33.3746 54.1538 34.2977 53.2308 35.5285 53.2308C36.7592 53.2308 37.6823 54.1538 37.6823 55.3846C37.6823 56.6154 36.7592 57.5385 35.5285 57.5385Z" fill="white"/>
<path d="M50.9133 50.7692C48.2979 50.7692 46.2979 52.7692 46.2979 55.3846C46.2979 58 48.2979 60 50.9133 60C53.5287 60 55.5287 58 55.5287 55.3846C55.5287 52.7692 53.5287 50.7692 50.9133 50.7692ZM50.9133 57.5385C49.6825 57.5385 48.7595 56.6154 48.7595 55.3846C48.7595 54.1538 49.6825 53.2308 50.9133 53.2308C52.1441 53.2308 53.0671 54.1538 53.0671 55.3846C53.0671 56.6154 52.1441 57.5385 50.9133 57.5385Z" fill="white"/>
<path d="M56.7595 26.1538H30.4518L27.8365 20H21.6826V23.0769H25.8365L32.298 38.7692C30.4518 39.5385 29.2211 41.3846 29.3749 43.5385C29.6826 46 31.8365 47.6923 34.1442 47.6923H55.5288V44.6154H33.9903C33.0672 44.6154 32.4518 44 32.4518 43.0769C32.4518 42.1538 33.0672 41.5385 33.9903 41.5385H54.298C55.0672 41.5385 55.6826 41.0769 55.8365 40.3077L58.298 28C58.4519 27.0769 57.6826 26.1538 56.7595 26.1538Z" fill="white"/>
</svg>
