<svg width="32" height="34" viewBox="0 0 32 34" fill="none" xmlns="http://www.w3.org/2000/svg">
<path fill-rule="evenodd" clip-rule="evenodd" d="M0 16.8393C0 7.60824 7.16344 0.125 16 0.125C24.8366 0.125 32 7.60824 32 16.8393C32 26.0703 24.8366 33.5536 16 33.5536C7.16344 33.5536 0 26.0703 0 16.8393Z" fill="#C4C4C4"/>
<path fill-rule="evenodd" clip-rule="evenodd" d="M16 0.125C7.16344 0.125 0 7.60824 0 16.8393C0 26.0703 7.16344 33.5536 16 33.5536C24.8366 33.5536 32 26.0703 32 16.8393C32 7.60824 24.8366 0.125 16 0.125ZM16.2211 14.2884L16.1876 13.7101C16.0868 12.2111 16.971 10.8419 18.3699 10.3108C18.8848 10.1219 19.7577 10.0983 20.3285 10.2636C20.5523 10.3344 20.9776 10.5705 21.2798 10.7829L21.8282 11.1724L22.4325 10.9718C22.7683 10.8655 23.2159 10.6885 23.4174 10.5705C23.6076 10.4642 23.7755 10.4052 23.7755 10.4406C23.7755 10.6413 23.3614 11.3259 23.0145 11.7036C22.5444 12.2347 22.6787 12.2819 23.63 11.9278C24.2008 11.7272 24.212 11.7272 24.1001 11.9514C24.0329 12.0695 23.686 12.4826 23.3167 12.8603C22.6899 13.5094 22.6563 13.5803 22.6563 14.1232C22.6563 14.9612 22.2758 16.7081 21.8953 17.6641C21.1902 19.4582 19.6794 21.3113 18.1685 22.2437C16.0421 23.5539 13.2106 23.8844 10.8268 23.1172C10.0321 22.8575 8.66676 22.1965 8.66676 22.0785C8.66676 22.0431 9.08085 21.9959 9.58448 21.9841C10.6365 21.9605 11.6885 21.6536 12.5838 21.1106L13.1882 20.7329L12.4943 20.4851C11.5094 20.131 10.6253 19.3166 10.4015 18.5494C10.3343 18.3015 10.3567 18.2897 10.9834 18.2897L11.6326 18.2779L11.0842 18.0064C10.435 17.6641 9.84189 17.0858 9.5509 16.4956C9.33826 16.0707 9.06966 14.9966 9.148 14.914C9.17039 14.8786 9.40541 14.9494 9.67401 15.0438C10.4462 15.3389 10.547 15.2681 10.0993 14.7724C9.25992 13.8753 9.00251 12.5416 9.40541 11.2786L9.59567 10.7121L10.3343 11.4793C11.8452 13.0255 13.6247 13.9461 15.6616 14.2176L16.2211 14.2884Z" fill="white"/>
</svg>
