<svg width="80" height="80" viewBox="0 0 80 80" fill="none" xmlns="http://www.w3.org/2000/svg">
<circle cx="40" cy="40" r="40" fill="#FC3867"/>
<path d="M29.2433 39.6112C29.4164 39.622 29.5782 39.7009 29.6933 39.8308C29.8083 39.9606 29.8671 40.1308 29.8569 40.304C29.806 41.5071 30.1791 42.4728 30.9663 43.168C31.1425 43.323 31.3339 43.4599 31.5375 43.5766C31.4252 42.7115 31.3797 41.2954 32.0731 40.4081C32.4872 39.8786 33.0888 39.6094 33.8622 39.6094H35.2638C35.425 39.6091 35.5845 39.5769 35.7333 39.5147C35.882 39.4526 36.017 39.3616 36.1305 39.247C36.2439 39.1325 36.3336 38.9966 36.3943 38.8473C36.4551 38.6979 36.4857 38.5381 36.4844 38.3769V31.1444C36.4855 30.9837 36.4546 30.8244 36.3937 30.6757C36.3328 30.527 36.2429 30.3919 36.1294 30.2782C36.0159 30.1644 35.8809 30.0744 35.7323 30.0132C35.5837 29.9521 35.4244 29.921 35.2638 29.9219H23.726C23.565 29.9209 23.4054 29.9518 23.2565 30.0129C23.1075 30.074 22.9721 30.1639 22.8581 30.2776C22.7441 30.3913 22.6538 30.5264 22.5923 30.6752C22.5309 30.824 22.4995 30.9835 22.5 31.1445V38.3769C22.4991 38.5383 22.5301 38.6983 22.5912 38.8477C22.6523 38.9971 22.7423 39.1329 22.856 39.2474C22.9697 39.3619 23.105 39.4528 23.2539 39.515C23.4029 39.5771 23.5627 39.6091 23.7241 39.6094H29.2067C29.2211 39.6094 29.2323 39.6106 29.2433 39.6112ZM34.4922 37.3437H30.3483C30.2447 37.3437 30.1453 37.3026 30.0721 37.2293C29.9988 37.1561 29.9577 37.0567 29.9577 36.9531C29.9577 36.8495 29.9988 36.7501 30.0721 36.6769C30.1453 36.6036 30.2447 36.5625 30.3483 36.5625H34.4922C34.5958 36.5625 34.6951 36.6036 34.7684 36.6769C34.8417 36.7501 34.8828 36.8495 34.8828 36.9531C34.8828 37.0567 34.8417 37.1561 34.7684 37.2293C34.6951 37.3026 34.5958 37.3437 34.4922 37.3437ZM34.4922 35.3125H33.5984C33.4948 35.3125 33.3954 35.2713 33.3221 35.1981C33.2489 35.1248 33.2077 35.0255 33.2077 34.9219C33.2077 34.8183 33.2489 34.7189 33.3221 34.6456C33.3954 34.5724 33.4948 34.5312 33.5984 34.5312H34.4922C34.5958 34.5312 34.6951 34.5724 34.7684 34.6456C34.8417 34.7189 34.8828 34.8183 34.8828 34.9219C34.8828 35.0255 34.8417 35.1248 34.7684 35.1981C34.6951 35.2713 34.5958 35.3125 34.4922 35.3125ZM30.0234 32.5H34.4922C34.5958 32.5 34.6951 32.5411 34.7684 32.6144C34.8417 32.6876 34.8828 32.787 34.8828 32.8906C34.8828 32.9942 34.8417 33.0936 34.7684 33.1668C34.6951 33.2401 34.5958 33.2812 34.4922 33.2812H30.0234C29.9198 33.2812 29.8205 33.2401 29.7472 33.1668C29.674 33.0936 29.6328 32.9942 29.6328 32.8906C29.6328 32.787 29.674 32.6876 29.7472 32.6144C29.8205 32.5411 29.9198 32.5 30.0234 32.5ZM24.4982 32.5H28.0734C28.177 32.5 28.2763 32.5411 28.3496 32.6144C28.4228 32.6876 28.464 32.787 28.464 32.8906C28.464 32.9942 28.4228 33.0936 28.3496 33.1668C28.2763 33.2401 28.177 33.2812 28.0734 33.2812H24.498C24.3944 33.2812 24.2951 33.2401 24.2218 33.1668C24.1486 33.0936 24.1074 32.9942 24.1074 32.8906C24.1074 32.787 24.1486 32.6876 24.2218 32.6144C24.2951 32.5411 24.3944 32.5 24.498 32.5H24.4982ZM24.4982 34.5312H31.6484C31.752 34.5312 31.8514 34.5724 31.9247 34.6456C31.9979 34.7189 32.0391 34.8183 32.0391 34.9219C32.0391 35.0255 31.9979 35.1248 31.9247 35.1981C31.8514 35.2713 31.752 35.3125 31.6484 35.3125H24.498C24.3944 35.3125 24.2951 35.2713 24.2218 35.1981C24.1486 35.1248 24.1074 35.0255 24.1074 34.9219C24.1074 34.8183 24.1486 34.7189 24.2218 34.6456C24.2951 34.5724 24.3944 34.5312 24.498 34.5312H24.4982ZM28.3984 37.3437H24.498C24.3944 37.3437 24.2951 37.3026 24.2218 37.2293C24.1486 37.1561 24.1074 37.0567 24.1074 36.9531C24.1074 36.8495 24.1486 36.7501 24.2218 36.6769C24.2951 36.6036 24.3944 36.5625 24.498 36.5625H28.3984C28.502 36.5625 28.6014 36.6036 28.6747 36.6769C28.7479 36.7501 28.7891 36.8495 28.7891 36.9531C28.7891 37.0567 28.7479 37.1561 28.6747 37.2293C28.6014 37.3026 28.502 37.3437 28.3984 37.3437Z" fill="white"/>
<path d="M37.2656 31.1442V38.377C37.2668 38.6407 37.2159 38.9021 37.1159 39.1462C37.0158 39.3903 36.8686 39.6122 36.6826 39.7993C36.4967 39.9863 36.2756 40.1349 36.0321 40.2363C35.7886 40.3378 35.5275 40.3902 35.2638 40.3906H33.8622C33.3349 40.3906 32.9513 40.554 32.6895 40.8884C32.0273 41.7341 32.2776 43.5198 32.4299 44.1361C32.4464 44.2021 32.4453 44.2713 32.4267 44.3367C32.4082 44.4022 32.3729 44.4617 32.3242 44.5092C32.2756 44.5568 32.2154 44.5909 32.1496 44.608C32.0837 44.6251 32.0145 44.6247 31.9489 44.6069C31.3943 44.4312 30.8831 44.1402 30.4489 43.753C29.7969 43.1766 29.0369 42.1094 29.0727 40.3906H28.2812V51.1719H42.5724L39.6576 49.3377C39.573 49.2861 39.5119 49.2033 39.4875 49.1072C39.4631 49.0111 39.4772 48.9093 39.527 48.8235C39.8769 48.2096 40.4295 47.7365 41.09 47.4854C41.7506 47.2343 42.4779 47.2208 43.1473 47.4472L39.3812 35.1517C39.2182 34.6195 39.2733 34.0444 39.5344 33.5528C39.7955 33.0612 40.2412 32.6935 40.7734 32.5305C41.3057 32.3676 41.8808 32.4227 42.3724 32.6838C42.8639 32.9449 43.2316 33.3906 43.3946 33.9228L45.4523 40.6337C45.6518 40.3392 45.9228 40.1001 46.24 39.9388C46.5572 39.7776 46.91 39.6995 47.2656 39.7119V26.6406H28.2812V29.1406H35.2638C35.527 29.1399 35.7878 29.1912 36.0311 29.2917C36.2744 29.3921 36.4955 29.5397 36.6815 29.7259C36.8676 29.9122 37.015 30.1333 37.1152 30.3767C37.2155 30.6201 37.2666 30.881 37.2656 31.1442Z" fill="white"/>
<path d="M41.5733 48.1485C41.1179 48.2719 40.713 48.5356 40.416 48.9023L44.3834 51.4113C44.3209 51.2554 44.2647 51.0957 44.2148 50.9323L43.4573 48.4595L43.2909 48.3647C43.0331 48.2169 42.7486 48.1217 42.4538 48.0846C42.1589 48.0475 41.8597 48.0692 41.5733 48.1485Z" fill="white"/>
<path d="M47.2656 24.5461C47.2613 23.7743 46.9518 23.0356 46.4046 22.4912C45.8575 21.9468 45.1172 21.641 44.3454 21.6406H31.1611C30.781 21.6416 30.4049 21.7175 30.0542 21.8642C29.7036 22.0109 29.3853 22.2253 29.1178 22.4953C28.8502 22.7652 28.6386 23.0853 28.495 23.4373C28.3515 23.7892 28.2788 24.166 28.2812 24.5461V25.8594H47.2656V24.5461ZM30 24.5312H29.8437C29.7401 24.5312 29.6408 24.4901 29.5675 24.4168C29.4943 24.3436 29.4531 24.2442 29.4531 24.1406C29.4531 24.037 29.4943 23.9377 29.5675 23.8644C29.6408 23.7912 29.7401 23.75 29.8437 23.75H30C30.1036 23.75 30.203 23.7912 30.2762 23.8644C30.3495 23.9377 30.3906 24.037 30.3906 24.1406C30.3906 24.2442 30.3495 24.3436 30.2762 24.4168C30.203 24.4901 30.1036 24.5312 30 24.5312ZM38.75 24.5312H31.5625C31.4589 24.5312 31.3595 24.4901 31.2863 24.4168C31.213 24.3436 31.1719 24.2442 31.1719 24.1406C31.1719 24.037 31.213 23.9377 31.2863 23.8644C31.3595 23.7912 31.4589 23.75 31.5625 23.75H38.75C38.8536 23.75 38.953 23.7912 39.0262 23.8644C39.0995 23.9377 39.1406 24.037 39.1406 24.1406C39.1406 24.2442 39.0995 24.3436 39.0262 24.4168C38.953 24.4901 38.8536 24.5312 38.75 24.5312Z" fill="white"/>
<path d="M45.2163 52.8485L43.8077 51.9531H28.2812V55.4539C28.2788 55.834 28.3514 56.2108 28.495 56.5627C28.6385 56.9147 28.8502 57.2348 29.1177 57.5048C29.3853 57.7747 29.7035 57.9892 30.0542 58.1358C30.4048 58.2825 30.781 58.3584 31.1611 58.3594H44.3454C45.1172 58.3591 45.8576 58.0533 46.4048 57.5089C46.9519 56.9645 47.2614 56.2257 47.2656 55.4539V54.5575C46.4672 54.1424 45.7681 53.5594 45.2163 52.8485ZM37.7533 56.2115C37.5131 56.2115 37.2782 56.1402 37.0785 56.0068C36.8787 55.8733 36.7231 55.6836 36.6311 55.4617C36.5392 55.2397 36.5151 54.9955 36.562 54.7599C36.6089 54.5243 36.7246 54.3079 36.8944 54.138C37.0643 53.9682 37.2807 53.8525 37.5163 53.8056C37.7519 53.7587 37.9961 53.7828 38.2181 53.8747C38.44 53.9667 38.6297 54.1223 38.7632 54.3221C38.8967 54.5218 38.9679 54.7566 38.9679 54.9969C38.9675 55.3189 38.8394 55.6276 38.6117 55.8553C38.384 56.083 38.0753 56.2111 37.7533 56.2115Z" fill="white"/>
<path d="M55.3078 40.5108C55.2039 40.179 54.9729 39.9017 54.6653 39.7396C54.3577 39.5774 53.9985 39.5435 53.666 39.6452C53.3335 39.747 53.0547 39.9761 52.8906 40.2826C52.7264 40.5892 52.6901 40.9482 52.7897 41.2814L53.6233 44.0028C53.6388 44.052 53.6445 44.1038 53.6399 44.1552C53.6354 44.2066 53.6207 44.2566 53.5967 44.3023C53.5727 44.3479 53.5399 44.3884 53.5002 44.4214C53.4604 44.4543 53.4146 44.479 53.3653 44.4941C53.3159 44.5092 53.2641 44.5144 53.2127 44.5094C53.1614 44.5044 53.1115 44.4892 53.0661 44.4648C53.0206 44.4404 52.9805 44.4072 52.9479 44.3672C52.9153 44.3272 52.891 44.2811 52.8763 44.2317L51.7095 40.4225C51.6055 40.0907 51.3744 39.8136 51.0668 39.6515C50.7591 39.4895 50.3999 39.4557 50.0674 39.5575C49.7349 39.6594 49.4563 39.8886 49.2922 40.1951C49.1281 40.5017 49.0919 40.8607 49.1915 41.1939L50.3583 45.003C50.374 45.0522 50.3798 45.1041 50.3753 45.1556C50.3709 45.2071 50.3562 45.2572 50.3322 45.303C50.3083 45.3488 50.2754 45.3893 50.2357 45.4224C50.1959 45.4554 50.15 45.4802 50.1005 45.4953C50.0511 45.5104 49.9992 45.5156 49.9478 45.5105C49.8963 45.5055 49.8464 45.4902 49.8009 45.4657C49.7554 45.4412 49.7152 45.4079 49.6827 45.3677C49.6501 45.3276 49.6259 45.2813 49.6113 45.2317L48.4446 41.4227C48.3423 41.0888 48.1116 40.8092 47.8032 40.6454C47.4947 40.4816 47.1339 40.447 46.8 40.5493C46.4661 40.6516 46.1864 40.8823 46.0226 41.1907C45.8589 41.4992 45.8243 41.86 45.9266 42.1939L47.0934 46.0031C47.1089 46.0523 47.1146 46.1041 47.11 46.1554C47.1055 46.2068 47.0907 46.2568 47.0668 46.3025C47.0428 46.3482 47.01 46.3887 46.9702 46.4216C46.9305 46.4545 46.8847 46.4793 46.8353 46.4944C46.786 46.5095 46.7342 46.5147 46.6828 46.5096C46.6315 46.5046 46.5816 46.4894 46.5362 46.465C46.4907 46.4406 46.4505 46.4075 46.418 46.3675C46.3854 46.3274 46.3611 46.2814 46.3464 46.2319L42.646 34.1516C42.5954 33.9863 42.5127 33.8325 42.4026 33.6992C42.2925 33.5658 42.1573 33.4554 42.0046 33.3743C41.8519 33.2932 41.6847 33.243 41.5125 33.2265C41.3404 33.21 41.1667 33.2276 41.0014 33.2783C40.836 33.3289 40.6823 33.4116 40.5489 33.5217C40.4156 33.6317 40.3052 33.767 40.2241 33.9197C40.143 34.0724 40.0928 34.2396 40.0763 34.4118C40.0598 34.5839 40.0774 34.7576 40.1281 34.9229L44.9619 50.7035C45.375 52.0466 46.3041 53.1711 47.5452 53.8302C48.7864 54.4892 50.2383 54.6291 51.5824 54.2191L53.7591 53.5524C55.1023 53.1392 56.2268 52.2102 56.8858 50.969C57.5449 49.7279 57.6848 48.276 57.2747 46.9318L55.3078 40.5108Z" fill="white"/>
<path d="M37.7533 54.5634C37.6676 54.5634 37.5838 54.5888 37.5125 54.6365C37.4413 54.6841 37.3857 54.7518 37.3529 54.831C37.3201 54.9101 37.3115 54.9973 37.3283 55.0813C37.345 55.1654 37.3862 55.2426 37.4469 55.3032C37.5075 55.3638 37.5847 55.4051 37.6687 55.4218C37.7528 55.4385 37.8399 55.43 37.9191 55.3972C37.9983 55.3644 38.066 55.3088 38.1136 55.2376C38.1612 55.1663 38.1866 55.0825 38.1866 54.9968C38.1865 54.8819 38.1408 54.7718 38.0596 54.6905C37.9783 54.6093 37.8682 54.5636 37.7533 54.5634Z" fill="white"/>
</svg>
