<svg width="80" height="80" viewBox="0 0 80 80" fill="none" xmlns="http://www.w3.org/2000/svg">
<circle cx="40" cy="40" r="40" fill="#FC3867"/>
<g clip-path="url(#clip0_1_386)">
<path d="M45.2743 35.4746C44.4934 35.0228 43.5156 35.5885 43.5156 36.489V41.6796L40 44.3163L36.4844 41.6796V36.489C36.4844 35.5869 35.5052 35.0235 34.7257 35.4746C31.4734 37.3559 29.4531 40.8561 29.4531 44.6093C29.4531 48.132 31.2328 51.4318 34.1406 53.3793V58.828C34.1406 59.4752 34.6653 59.9999 35.3125 59.9999H44.6875C45.3347 59.9999 45.8594 59.4752 45.8594 58.828V53.3793C48.7672 51.4318 50.5469 48.132 50.5469 44.6093C50.5469 40.8561 48.5266 37.3559 45.2743 35.4746Z" fill="white"/>
<path d="M56.4844 20H23.5156C21.5771 20 20 21.5771 20 23.5156V29.375H60V23.5156C60 21.5771 58.4229 20 56.4844 20ZM25.9375 27.0312C25.2903 27.0312 24.7656 26.5066 24.7656 25.8594C24.7656 25.2122 25.2903 24.6875 25.9375 24.6875C26.5847 24.6875 27.1094 25.2122 27.1094 25.8594C27.1094 26.5066 26.5847 27.0312 25.9375 27.0312ZM30.625 27.0312C29.9778 27.0312 29.4531 26.5066 29.4531 25.8594C29.4531 25.2122 29.9778 24.6875 30.625 24.6875C31.2722 24.6875 31.7969 25.2122 31.7969 25.8594C31.7969 26.5066 31.2722 27.0312 30.625 27.0312ZM35.3125 27.0312C34.6653 27.0312 34.1406 26.5066 34.1406 25.8594C34.1406 25.2122 34.6653 24.6875 35.3125 24.6875C35.9597 24.6875 36.4844 25.2122 36.4844 25.8594C36.4844 26.5066 35.9597 27.0312 35.3125 27.0312ZM54.0625 27.0312H47.0312C46.3841 27.0312 45.8594 26.5066 45.8594 25.8594C45.8594 25.2122 46.3841 24.6875 47.0312 24.6875H54.0625C54.7097 24.6875 55.2344 25.2122 55.2344 25.8594C55.2344 26.5066 54.7097 27.0312 54.0625 27.0312Z" fill="white"/>
<path d="M20 53.9844C20 55.9229 21.5771 57.5 23.5156 57.5H31.7969V54.553C28.8405 52.1143 27.1094 48.4842 27.1094 44.6094C27.1094 40.0223 29.5781 35.7448 33.5521 33.4459C34.6373 32.8178 35.9791 32.8152 37.0688 33.4436C38.1541 34.0695 38.8281 35.2365 38.8281 36.4891V40.5078L40 41.3867L41.1719 40.5078V36.4891C41.1719 35.2365 41.8459 34.0695 42.9309 33.4438C44.0192 32.8161 45.3607 32.817 46.4481 33.4461C50.4219 35.7448 52.8906 40.0223 52.8906 44.6094C52.8906 48.4842 51.1595 52.1143 48.2031 54.553V57.5H56.4844C58.4229 57.5 60 55.9229 60 53.9844V31.7188H20V53.9844Z" fill="white"/>
</g>
<defs>
<clipPath id="clip0_1_386">
<rect width="40" height="40" fill="white" transform="translate(20 20)"/>
</clipPath>
</defs>
</svg>
