<svg width="32" height="34" viewBox="0 0 32 34" fill="none" xmlns="http://www.w3.org/2000/svg">
<path fill-rule="evenodd" clip-rule="evenodd" d="M0 16.8393C0 7.60824 7.16344 0.125 16 0.125C24.8366 0.125 32 7.60824 32 16.8393C32 26.0703 24.8366 33.5536 16 33.5536C7.16344 33.5536 0 26.0703 0 16.8393Z" fill="#C4C4C4"/>
<path fill-rule="evenodd" clip-rule="evenodd" d="M16 0.125C7.16344 0.125 0 7.60824 0 16.8393C0 26.0703 7.16344 33.5536 16 33.5536C24.8366 33.5536 32 26.0703 32 16.8393C32 7.60824 24.8366 0.125 16 0.125ZM22.6679 11.0938C23.4022 11.3043 23.9806 11.9245 24.1768 12.7122C24.5335 14.1397 24.5335 17.1183 24.5335 17.1183C24.5335 17.1183 24.5335 20.0968 24.1768 21.5245C23.9806 22.3121 23.4022 22.9324 22.6679 23.143C21.3371 23.5255 16.0001 23.5255 16.0001 23.5255C16.0001 23.5255 10.6632 23.5255 9.33231 23.143C8.59796 22.9324 8.01963 22.3121 7.82337 21.5245C7.46681 20.0968 7.46681 17.1183 7.46681 17.1183C7.46681 17.1183 7.46681 14.1397 7.82337 12.7122C8.01963 11.9245 8.59796 11.3043 9.33231 11.0938C10.6632 10.7112 16.0001 10.7112 16.0001 10.7112C16.0001 10.7112 21.3371 10.7112 22.6679 11.0938Z" fill="white"/>
<path fill-rule="evenodd" clip-rule="evenodd" d="M14.3999 20.1818V14.6104L18.6666 17.3962L14.3999 20.1818Z" fill="white"/>
</svg>
